<svg xmlns="http://www.w3.org/2000/svg" aria-hidden="true" style="display:none">
  <!-- Simple, themeable icons using currentColor -->
  <symbol id="car" viewBox="0 0 24 24">
    <path d="M5 11l2-4a2 2 0 0 1 2-1h6a2 2 0 0 1 2 1l2 4" fill="none" stroke="currentColor" stroke-width="2" stroke-linecap="round" stroke-linejoin="round"/>
    <rect x="3" y="11" width="18" height="6" rx="2" ry="2" fill="none" stroke="currentColor" stroke-width="2"/>
    <circle cx="7" cy="17" r="2" fill="currentColor"/>
    <circle cx="17" cy="17" r="2" fill="currentColor"/>
  </symbol>

  <symbol id="clock" viewBox="0 0 24 24">
    <circle cx="12" cy="12" r="9" fill="none" stroke="currentColor" stroke-width="2"/>
    <path d="M12 7v6l4 2" fill="none" stroke="currentColor" stroke-width="2" stroke-linecap="round" stroke-linejoin="round"/>
  </symbol>

  <symbol id="academic-cap" viewBox="0 0 24 24">
    <path d="M12 5l9 5-9 5-9-5 9-5z" fill="none" stroke="currentColor" stroke-width="2" stroke-linejoin="round"/>
    <path d="M5 12v4l7 4 7-4v-4" fill="none" stroke="currentColor" stroke-width="2" stroke-linejoin="round"/>
  </symbol>

  <symbol id="ticket" viewBox="0 0 24 24">
    <path d="M4 6h12a2 2 0 0 1 2 2v2a2 2 0 0 0 0 4v2a2 2 0 0 1-2 2H4a2 2 0 0 1-2-2v-2a2 2 0 0 0 0-4V8a2 2 0 0 1 2-2z" fill="none" stroke="currentColor" stroke-width="2" stroke-linejoin="round"/>
    <path d="M8 8h8M8 12h8M8 16h6" fill="none" stroke="currentColor" stroke-width="2" stroke-linecap="round"/>
  </symbol>

  <symbol id="check" viewBox="0 0 24 24">
    <path d="M5 13l4 4L19 7" fill="none" stroke="currentColor" stroke-width="2" stroke-linecap="round" stroke-linejoin="round"/>
  </symbol>

  <symbol id="ban" viewBox="0 0 24 24">
    <circle cx="12" cy="12" r="9" fill="none" stroke="currentColor" stroke-width="2"/>
    <path d="M5 19L19 5" fill="none" stroke="currentColor" stroke-width="2" stroke-linecap="round"/>
  </symbol>

  <symbol id="chat" viewBox="0 0 24 24">
    <path d="M4 5h16v10H7l-3 3V5z" fill="none" stroke="currentColor" stroke-width="2" stroke-linejoin="round"/>
  </symbol>

  <symbol id="phone" viewBox="0 0 24 24">
    <rect x="6" y="2" width="12" height="20" rx="2" ry="2" fill="none" stroke="currentColor" stroke-width="2"/>
    <path d="M9 18h6" fill="none" stroke="currentColor" stroke-width="2" stroke-linecap="round"/>
    <circle cx="12" cy="5" r="1" fill="currentColor"/>
  </symbol>

  <symbol id="id-card" viewBox="0 0 24 24">
    <rect x="3" y="6" width="18" height="12" rx="2" ry="2" fill="none" stroke="currentColor" stroke-width="2"/>
    <circle cx="8" cy="12" r="2" fill="none" stroke="currentColor" stroke-width="2"/>
    <path d="M12 11h6M12 14h6" fill="none" stroke="currentColor" stroke-width="2" stroke-linecap="round"/>
  </symbol>

  <symbol id="map" viewBox="0 0 24 24">
    <path d="M3 6l6-2 6 2 6-2v14l-6 2-6-2-6 2V6z" fill="none" stroke="currentColor" stroke-width="2" stroke-linejoin="round"/>
    <path d="M9 4v16M15 6v16" fill="none" stroke="currentColor" stroke-width="2"/>
  </symbol>
</svg>